<svg xmlns="http://www.w3.org/2000/svg" width="84.726" height="70.915" viewBox="0 0 22.417 18.763"><g fill="currentColor" style="fill:#666"><path d="M47.182 31.598c-.511 0-.926.397-.926.886 0 .488.415.885.926.885h3.704c.511 0 .926-.397.926-.885 0-.49-.415-.886-.926-.886zM47.182 35.139c-.511 0-.926.396-.926.885s.415.885.926.885h3.704c.511 0 .926-.396.926-.885s-.415-.885-.926-.885zM46.256 39.564c0-.489.415-.885.926-.885h3.704c.511 0 .926.396.926.885s-.415.885-.926.885h-3.704c-.511 0-.926-.396-.926-.885z" style="fill:#666;stroke-width:.905307" transform="matrix(1.10038 0 0 1.17773 -46.824 -33.045)"/><path fill-rule="evenodd" d="M45.33 28.058c-1.534 0-2.778 1.189-2.778 2.655v10.621c0 1.467 1.244 2.656 2.778 2.656h14.816c1.534 0 2.778-1.19 2.778-2.656v-10.62c0-1.467-1.244-2.656-2.778-2.656zm14.816 1.77H45.33c-.511 0-.926.397-.926.885v10.621c0 .49.415.885.926.885h14.816c.511 0 .926-.396.926-.885v-10.62c0-.49-.415-.886-.926-.886z" clip-rule="evenodd" style="fill:#666;stroke-width:.905307" transform="matrix(1.10038 0 0 1.17773 -46.824 -33.045)"/></g><g fill="none" fill-rule="evenodd" stroke="currentColor" stroke-linecap="round" stroke-linejoin="round"><path stroke-width=".40482" d="M14.607 6.424c.67 0 1.214.544 1.214 1.214v.81a1.214 1.214 0 1 1-2.429 0v-.81c0-.67.544-1.214 1.215-1.214zm2.834 5.667v-.294c0-1.29-1.493-2.134-2.834-2.134-1.342 0-2.834.844-2.834 2.134v.294c0 .224.181.405.405.405h4.858a.405.405 0 0 0 .405-.405z"/><path fill="currentColor" stroke-width=".40482" d="M16.234 6.496c.468.169.802.617.802 1.142v.405c0 .525-.343 1.045-.81 1.215.273-.372.41-.845.409-1.417 0-.573-.134-1.021-.4-1.345Zm2.016 6h.405a.405.405 0 0 0 .405-.405v-.294c0-.879-.692-1.55-1.557-1.89 0 0 1.152.97.747 2.59z"/></g></svg>