<svg width="180" height="180" viewBox="0 0 47.625 47.625" xmlns="http://www.w3.org/2000/svg"><g style="display:inline"><path style="opacity:.973274;fill:none;stroke:none;stroke-width:5.63179" d="M0 0h47.625v47.625H0z"/></g><path style="fill:#fbb03f;fill-opacity:1;fill-rule:nonzero;stroke:none" d="m0 0 17.503.068v-1.414c0-4.128 1.075-7.437 3.233-9.928 2.154-2.491 5.025-3.737 8.616-3.737 3.858 0 6.91 1.156 9.155 3.469 2.244 2.31 3.367 5.439 3.367 9.389 0 6.328-4.533 10.86-13.602 13.6-1.165.359-2.084.647-2.757.877-7.632 2.378-13.286 5.756-16.964 10.133-3.682 4.376-5.521 9.905-5.521 16.592 0 9.202 2.547 16.583 7.64 22.152 5.093 5.564 11.884 8.347 20.365 8.347 7.942 0 14.27-2.481 18.984-7.441 4.714-4.96 7.338-11.905 7.877-20.836H40.527v.808c0 3.142-.941 5.68-2.827 7.609-1.887 1.93-4.355 2.893-7.408 2.893-3.141 0-5.619-.984-7.437-2.961-1.816-1.977-2.728-4.666-2.728-8.077 0-1.437.191-2.706.575-3.807a8.668 8.668 0 0 1 1.782-2.994c1.839-2.021 5.788-3.882 11.849-5.587 2.693-.72 4.756-1.325 6.194-1.816 6.734-2.293 11.702-5.568 14.913-9.829 3.207-4.267 4.813-9.723 4.813-16.362 0-10.1-2.805-18.21-8.417-24.341-5.611-6.125-13.061-9.187-22.351-9.187-8.749 0-15.819 2.964-21.206 8.886C2.892-17.568.134-9.737 0 0" transform="matrix(.08993 0 0 -.0825 5.664 18.693)"/><path style="fill:#fbb03f;fill-opacity:1;fill-rule:nonzero;stroke:none" d="M0 0h-49.751v98.019h18.988V17.23H0Z" transform="matrix(.08993 0 0 -.0825 26.369 21.203)"/><path style="fill:#fbb03f;fill-opacity:1;fill-rule:nonzero;stroke:none" d="m0 0-11.581 31.576L-23.429 0Zm-30.029-18.177-7.606-20.532h-19.86l38.037 98.019h16.562l37.497-98.019H14.067L6.328-18.177z" transform="matrix(.08993 0 0 -.0825 31.781 18.01)"/><path style="fill:#fbb03f;fill-opacity:1;fill-rule:nonzero;stroke:none" d="M0 0h4.243c7.761 0 13.653 1.403 17.671 4.208 4.015 2.802 6.025 6.898 6.025 12.285 0 5.205-1.682 9.043-5.048 11.511-3.368 2.47-8.617 3.704-15.756 3.704H0Zm0-50.357h-19.187v98.019H4.105c7.407 0 12.915-.259 16.528-.773 3.612-.518 6.698-1.36 9.258-2.525 5.564-2.603 9.807-6.237 12.725-10.903 2.918-4.67 4.377-10.144 4.377-16.428 0-7.585-2.09-14.017-6.264-19.287-4.173-5.276-9.849-8.634-17.032-10.068l24.504-38.035H25.312L0-4.85Z" transform="matrix(.08993 0 0 -.0825 36.994 17.05)"/><path style="fill:#29b785;fill-opacity:1;fill-rule:nonzero;stroke:none" d="M0 0h5.05c5.339 0 9.435 1.158 12.284 3.466 2.85 2.315 4.273 5.625 4.273 9.933 0 4.441-1.377 7.752-4.138 9.928-2.759 2.175-6.946 3.267-12.553 3.267H0Zm0-54.193h-19.187v98.019H5.184c6.194 0 11.076-.338 14.641-1.011 3.57-.673 6.453-1.748 8.651-3.229 4.04-2.74 7.216-6.354 9.526-10.838 2.313-4.489 3.466-9.293 3.466-14.408 0-9.38-3.095-16.878-9.289-22.487-6.195-5.61-14.542-8.416-25.044-8.416H0Z" transform="matrix(.08993 0 0 -.0825 14.885 29.876)"/><path style="fill:#29b785;fill-opacity:1;fill-rule:nonzero;stroke:none" d="m0 0-11.582 31.576L-23.43 0Zm-30.025-18.177-7.611-20.532h-19.859l38.036 98.019h16.562l37.501-98.019H14.071L6.328-18.177z" transform="matrix(.08993 0 0 -.0825 23.01 31.154)"/><path style="fill:#29b785;fill-opacity:1;fill-rule:nonzero;stroke:none" d="M0 0c-2.56 6.104-6.285 11.603-11.18 16.493-4.757 4.714-10.152 8.327-16.19 10.839-6.035 2.512-12.308 3.772-18.817 3.772-8.663 0-16.648-1.92-23.963-5.757-7.317-3.838-13.399-9.281-18.246-16.325a48.948 48.948 0 0 1-6.398-13.433c-1.433-4.778-2.153-9.859-2.153-15.245 0-6.868 1.178-13.322 3.535-19.356 2.356-6.038 5.823-11.477 10.403-16.324 4.756-5.12 10.207-8.979 16.359-11.581a47.394 47.394 0 0 1 4.717-1.71v22.357a33.1 33.1 0 0 0-6.604 5.54c-2.736 3.009-4.804 6.329-6.193 9.962-1.39 3.639-2.085 7.563-2.085 11.785 0 8.391 2.982 15.525 8.953 21.409 5.968 5.879 13.237 8.818 21.809 8.818 8.214 0 15.251-2.952 21.108-8.853 5.858-5.904 8.784-13.026 8.784-21.374 0-9.113-2.905-16.718-8.714-22.822a30.274 30.274 0 0 0-6.304-5.067v-21.552c1.464.472 2.914.992 4.348 1.607 6.263 2.672 11.749 6.5 16.462 11.481C-5.702-50.579-2.168-45.129.233-38.978c2.4 6.147 3.605 12.721 3.605 19.723C3.838-12.521 2.555-6.104 0 0" transform="matrix(.08993 0 0 -.0825 34.61 28.666)"/><path style="fill:#29b785;fill-opacity:1;fill-rule:nonzero;stroke:none;stroke-width:.0861309" d="M144.027 238.476h-1.725v-4.222h1.725z" transform="translate(-112.741 -203.002)"/><path style="fill:#fbb03f;fill-opacity:1;fill-rule:nonzero;stroke:none" d="M0 0c0-27.427-22.226-49.657-49.647-49.657C-77.074-49.657-99.3-27.427-99.3 0c0 27.42 22.226 49.647 49.653 49.647C-22.226 49.647 0 27.42 0 0" transform="matrix(.08993 0 0 -.0825 20.467 17.102)"/><path style="fill:#fbb03f;fill-opacity:1;fill-rule:nonzero;stroke:none;stroke-width:.0861309" d="M128.05 213.629h1.38v1.67h-1.38zM128.053 222.252h1.38v1.67h-1.38z" transform="translate(-112.741 -203.002)"/><path style="fill:#fbb03f;fill-opacity:1;fill-rule:nonzero;stroke:none" d="m0 0 10.86 10.857L25.174-3.456 14.313-14.313Z" transform="matrix(.08993 0 0 -.0825 10.522 12.975)"/><path style="fill:#fbb03f;fill-opacity:1;fill-rule:nonzero;stroke:none" d="m0 0-10.86 10.861L3.458 25.174l10.856-10.86Z" transform="matrix(.08993 0 0 -.0825 11.499 22.096)"/><path style="fill:#ffd400;fill-opacity:1;fill-rule:nonzero;stroke:none" d="M0 0c0-18.189-14.746-32.933-32.938-32.933-18.186 0-32.935 14.744-32.935 32.933 0 18.19 14.749 32.935 32.935 32.935C-14.746 32.935 0 18.19 0 0" transform="matrix(.08993 0 0 -.0825 18.937 17.103)"/><path style="fill:#fff;fill-opacity:1;fill-rule:nonzero;stroke:none" d="M0 0c0-9.019-7.308-16.331-16.329-16.331-9.013 0-16.325 7.312-16.325 16.331 0 9.019 7.312 16.329 16.325 16.329C-7.308 16.329 0 9.019 0 0" transform="matrix(.08993 0 0 -.0825 17.443 17.081)"/><path style="fill:#fbb03f;fill-opacity:1;fill-rule:nonzero;stroke:none" d="m0 0-10.856 10.86-14.313-14.313 10.859-10.86Z" transform="matrix(.08993 0 0 -.0825 21.478 13.07)"/><path style="fill:#fbb03f;fill-opacity:1;fill-rule:nonzero;stroke:none" d="m0 0 10.86 10.861-14.314 14.313-10.859-10.86Z" transform="matrix(.08993 0 0 -.0825 20.502 22.096)"/><path style="fill:#fbb03f;fill-opacity:1;fill-rule:nonzero;stroke:none;stroke-width:.0861309" d="M128.05 225.008h1.38v1.67h-1.38z" transform="translate(-112.741 -203.002)"/></svg>