<svg xmlns="http://www.w3.org/2000/svg" width="32" height="32" viewBox="0 0 8.467 8.467"><g style="display:inline"><path d="M39.688 39.688h8.467v8.467h-8.467z" style="opacity:.973274;fill:#fff;stroke-width:.669919" transform="translate(-39.688 -39.688)"/></g><g fill="none" fill-rule="evenodd" stroke="currentColor" stroke-linecap="round" stroke-linejoin="round"><path stroke-width=".40482" d="M3.392 1.008c.67 0 1.215.544 1.215 1.215v.81a1.214 1.214 0 1 1-2.43 0v-.81c0-.67.544-1.215 1.215-1.215zm2.834 5.668V6.38c0-1.29-1.492-2.134-2.834-2.134-1.341 0-2.834.844-2.834 2.134v.295c0 .223.182.405.405.405h4.858a.405.405 0 0 0 .405-.405z"/><path fill="currentColor" stroke-width=".40482" d="M5.02 1.08c.467.17.801.617.801 1.143v.405c0 .525-.343 1.045-.81 1.214.273-.372.41-.844.41-1.417-.001-.573-.135-1.021-.402-1.345Zm2.016 6h.404a.405.405 0 0 0 .405-.404V6.38c0-.878-.692-1.55-1.557-1.89 0 0 1.152.97.748 2.59z"/></g></svg>